# xmcd
#
# Track frame offsets:
#	183
#	13908
#	30308
#	43183
#	55408
#	68365
#	83570
#	98233
#	115208
#	130058
#	142245
#
# Disc length: 2157 seconds
#
# Revision: 0
# Processed by: cddbd v1.4PL0 Copyright (c) Steve Scherf et al.
# Submitted via: EasyCDDAExtractor 4.5.0.2
#
DISCID=90086b0b
DTITLE=Kenny Rogers - Kenny
DYEAR=1978
DGENRE=Country
TTITLE0=You Turn The Light On
TTITLE1=You Decorated My Life
TTITLE2=She's A Mystery
TTITLE3=Goodbye Marie
TTITLE4=Tulsa Turnaround
TTITLE5=I Want To Make You Smile
TTITLE6=Santiago Midnight Moonlight
TTITLE7=One Man's Woman
TTITLE8=In And Out Of Your Heart
TTITLE9=Old Folks
TTITLE10=Coward Of The County
EXTD=
EXTT0=
EXTT1=
EXTT2=
EXTT3=
EXTT4=
EXTT5=
EXTT6=
EXTT7=
EXTT8=
EXTT9=
EXTT10=
PLAYORDER=
